<svg xmlns="http://www.w3.org/2000/svg" width="128" height="128" viewBox="0 0 128 128"><path fill="#CBCDF0" d="M0 0h128v128H0z"/><path fill="#252E55" d="M62.2 15.9h3.5c14.1 0 26.4 6.4 37.1 19.2 6.6 9 9.9 18.6 9.9 28.8v1.7c0 15.4-7 28.5-21.1 39.3-8.7 5.7-17.6 8.5-26.7 8.5h-1.7c-15.4 0-28.4-6.8-39-20.4-6-8.8-9.1-17.7-9.1-26.7v-3.5c0-14.4 6.7-27.1 20.1-38 9.1-5.9 18.1-8.9 27-8.9zM30.6 38.5v1.1c.5 2 1.1 3.1 1.9 3.1v.8c-7.9 3.9-11.8 8.8-11.8 14.6v2.7c0 15.4 6.2 28.8 18.5 40.4 7.9 6 15.6 9.1 23.1 9.1h3.5c9.6 0 18.6-4.3 27.3-12.9 9.7-10.7 14.6-23.7 14.6-39.3 0-5.5-3.9-10.4-11.8-14.9 1.4-1.4 2.2-2.6 2.2-3.6v-1.4c-.7-2.7-2-4.1-4.1-4.1h-1c-2.7 0-4.3 1.7-4.7 5.2l.3.8-.3.3H88C79.9 38.1 71.9 37 64.1 37 56 37 48 38.1 40.2 40.4l-.3-.3.3-1.1c-.5-3.3-2-5-4.6-5h-.8c-2.3 0-3.6 1.5-4.2 4.5z"/></svg>